HIERARCHY
ROOT Hips
{
	OFFSET 0.00000 0.00000 0.00000
	CHANNELS 6 Xposition Yposition Zposition Zrotation Yrotation Xrotation 
	JOINT LHipJoint
	{
		OFFSET 0 0 0
		CHANNELS 3 Zrotation Yrotation Xrotation
		JOINT LeftUpLeg
		{
			OFFSET 1.53139 -1.83434 0.76626
			CHANNELS 3 Zrotation Yrotation Xrotation
			JOINT LeftLeg
			{
				OFFSET 2.56112 -7.03663 0.00000
				CHANNELS 3 Zrotation Yrotation Xrotation
				JOINT LeftFoot
				{
					OFFSET 2.59983 -7.14299 0.00000
					CHANNELS 3 Zrotation Yrotation Xrotation
					JOINT LeftToeBase
					{
						OFFSET 0.13742 -0.37757 2.00054
						CHANNELS 3 Zrotation Yrotation Xrotation
						End Site
						{
							OFFSET 0.00000 -0.00000 1.02897
						}
					}
				}
			}
		}
	}
	JOINT RHipJoint
	{
		OFFSET 0 0 0
		CHANNELS 3 Zrotation Yrotation Xrotation
		JOINT RightUpLeg
		{
			OFFSET -1.40122 -1.83435 0.76627
			CHANNELS 3 Zrotation Yrotation Xrotation
			JOINT RightLeg
			{
				OFFSET -2.54052 -6.98003 0.00000
				CHANNELS 3 Zrotation Yrotation Xrotation
				JOINT RightFoot
				{
					OFFSET -2.63179 -7.23079 0.00000
					CHANNELS 3 Zrotation Yrotation Xrotation
					JOINT RightToeBase
					{
						OFFSET -0.24131 -0.66299 2.03908
						CHANNELS 3 Zrotation Yrotation Xrotation
						End Site
						{
							OFFSET -0.00000 -0.00000 1.07391
						}
					}
				}
			}
		}
	}
	JOINT LowerBack
	{
		OFFSET 0 0 0
		CHANNELS 3 Zrotation Yrotation Xrotation
		JOINT Spine
		{
			OFFSET 0.01174 2.10302 -0.29778
			CHANNELS 3 Zrotation Yrotation Xrotation
			JOINT Spine1
			{
				OFFSET 0.00772 2.13227 -0.01247
				CHANNELS 3 Zrotation Yrotation Xrotation
				JOINT Neck
				{
					OFFSET 0 0 0
					CHANNELS 3 Zrotation Yrotation Xrotation
					JOINT Neck1
					{
						OFFSET -0.09219 1.60848 0.31481
						CHANNELS 3 Zrotation Yrotation Xrotation
						JOINT Head
						{
							OFFSET 0.13974 1.65456 -0.31134
							CHANNELS 3 Zrotation Yrotation Xrotation
							End Site
							{
								OFFSET 0.04742 1.69515 -0.14578
							}
						}
					}
				}
				JOINT LeftShoulder
				{
					OFFSET 0 0 0
					CHANNELS 3 Zrotation Yrotation Xrotation
					JOINT LeftArm
					{
						OFFSET 3.24909 1.02882 -0.23993
						CHANNELS 3 Zrotation Yrotation Xrotation
						JOINT LeftForeArm
						{
							OFFSET 5.32955 -0.00000 -0.00000
							CHANNELS 3 Zrotation Yrotation Xrotation
							JOINT LeftHand
							{
								OFFSET 3.69232 -0.00000 -0.00000
								CHANNELS 3 Zrotation Yrotation Xrotation
								JOINT LeftFingerBase
								{
									OFFSET 0 0 0
									CHANNELS 3 Zrotation Yrotation Xrotation
									JOINT LeftHandIndex1
									{
										OFFSET 0.53660 -0.00000 -0.00000
										CHANNELS 3 Zrotation Yrotation Xrotation
										End Site
										{
											OFFSET 0.43262 -0.00000 -0.00000
										}
									}
								}
								JOINT LThumb
								{
									OFFSET 0 0 0
									CHANNELS 3 Zrotation Yrotation Xrotation
									End Site
									{
										OFFSET 0.43922 -0.00000 0.43922
									}
								}
							}
						}
					}
				}
				JOINT RightShoulder
				{
					OFFSET 0 0 0
					CHANNELS 3 Zrotation Yrotation Xrotation
					JOINT RightArm
					{
						OFFSET -3.21387 0.93002 -0.34594
						CHANNELS 3 Zrotation Yrotation Xrotation
						JOINT RightForeArm
						{
							OFFSET -5.23431 -0.00000 0.00000
							CHANNELS 3 Zrotation Yrotation Xrotation
							JOINT RightHand
							{
								OFFSET -3.55301 -0.00000 -0.00000
								CHANNELS 3 Zrotation Yrotation Xrotation
								JOINT RightFingerBase
								{
									OFFSET 0 0 0
									CHANNELS 3 Zrotation Yrotation Xrotation
									JOINT RightHandIndex1
									{
										OFFSET -0.77252 -0.00000 -0.00000
										CHANNELS 3 Zrotation Yrotation Xrotation
										End Site
										{
											OFFSET -0.62283 -0.00000 -0.00000
										}
									}
								}
								JOINT RThumb
								{
									OFFSET 0 0 0
									CHANNELS 3 Zrotation Yrotation Xrotation
									End Site
									{
										OFFSET -0.63234 -0.00000 0.63234
									}
								}
							}
						}
					}
				}
			}
		}
	}
}
MOTION
Frames: 16
Frame Time: .0083333
-12.2051 17.7556 -9.535 0 0 0 0 0 0 -21 0 0 0 0 0 0 0 0 0 0 0 0 0 0 21 0 0 0 0 0 0 0 0 0 0 0 0 0 0 0 0 0 0 0 0 0 0 -16 0 0 21 0 0 11 0 0 0 -8 0 0 0 0 0 0 0 0 0 0 0 0 0 0 0 0 0 0 0 0 8 0 0 0 0 0 0 0 0 0 0 0 0 0 0 0 0 0
-12.2051 17.7556 -9.5350 -5.0696 52.1557 -3.3033 0.0000 0.0000 0.0000 -14.7701 -9.9639 -24.6371 2.6398 10.0878 29.2614 0.0911 -1.9858 -5.3578 0.2316 -3.0974 -8.5501 0.0000 0.0000 0.0000 29.0261 -2.7243 4.6821 -0.6197 -5.0379 14.0166 -0.7931 2.6036 -16.1456 -0.3299 -3.6916 10.2106 3.0463 1.2833 11.3247 1.8702 2.2148 1.4931 -0.0997 1.0702 -4.7466 -12.0902 -7.2848 -15.8451 8.6480 -9.4934 32.9099 4.0471 -4.2474 15.2156 0.0000 0.0000 0.0000 -89.3755 4.5805 17.1397 14.4472 -23.3703 -3.0032 -0.0000 -0.0000 7.7164 21.7329 24.5964 9.4203 -7.1250 0.0000 -0.0000 -8.4285 56.0147 -2.2889 0.0000 0.0000 0.0000 87.4630 -2.5792 13.3408 -12.9504 21.2145 -2.4353 0.0000 0.0000 10.2033 -15.3746 7.9568 -2.1798 7.1250 -0.0000 -0.0000 8.3153 -21.7633 4.6880
-12.1579 17.7564 -9.4970 -5.1870 52.1368 -3.2543 0.0000 0.0000 0.0000 -14.6972 -9.8207 -24.6889 2.3504 9.5606 27.5653 0.0921 -2.0690 -5.3883 0.2485 -3.2074 -8.8566 0.0000 0.0000 0.0000 29.1003 -2.7596 5.0878 -0.5655 -4.8165 13.3860 -0.7705 2.5259 -15.9206 -0.3192 -3.6316 10.0425 3.0512 1.3113 11.1772 1.9581 2.2503 1.5183 -0.0117 1.0903 -4.6410 -12.2126 -7.2795 -15.8657 8.6688 -9.4455 32.7799 4.0805 -4.2406 15.1619 -0.0000 -0.0000 0.0000 -89.5473 4.5294 16.7309 14.1585 -22.9609 -2.8897 -0.0000 -0.0000 8.2194 21.5875 24.4823 9.3121 -7.1250 0.0000 -0.0000 -8.5329 55.8675 -2.2871 -0.0000 -0.0000 0.0000 87.3206 -2.5249 13.4204 -12.9759 21.2520 -2.4446 0.0000 0.0000 10.1569 -15.4020 8.0787 -2.2171 7.1250 -0.0000 -0.0000 8.2917 -21.6373 4.6984
-12.1121 17.7555 -9.4596 -5.3605 52.1313 -3.3071 0.0000 0.0000 0.0000 -14.6261 -9.5667 -24.7380 2.0814 9.0335 25.9003 0.0911 -2.4084 -5.3748 0.2190 -3.0124 -8.3134 0.0000 0.0000 0.0000 29.2125 -2.8366 5.4861 -0.5211 -4.6264 12.8460 -0.7429 2.4407 -15.6380 -0.2941 -3.4870 9.6377 3.0459 1.3317 10.9406 2.0816 2.2686 1.6873 0.1261 1.1071 -4.3377 -12.2502 -7.2730 -16.0027 8.6411 -9.3914 32.5875 4.0743 -4.2248 15.0955 -0.0000 -0.0000 0.0000 -89.7426 4.2507 16.2505 13.8606 -22.5351 -2.7745 -0.0000 -0.0000 8.8405 21.5433 24.4602 9.2837 -7.1250 0.0000 -0.0000 -8.5700 55.8357 -2.2905 -0.0000 -0.0000 0.0000 87.0885 -2.2747 13.7049 -13.0327 21.3352 -2.4652 0.0000 0.0000 10.2303 -15.2041 7.9268 -2.1464 7.1250 -0.0000 -0.0000 8.4397 -21.8015 4.7522
-12.0634 17.7524 -9.4189 -5.2828 52.1962 -3.1828 0.0000 0.0000 0.0000 -14.7833 -9.2863 -24.7408 1.8278 8.4979 24.2367 0.0857 -2.9491 -5.2863 0.2328 -3.1056 -8.5728 0.0000 0.0000 0.0000 29.1470 -3.0340 5.9457 -0.4717 -4.4050 12.2188 -0.7171 2.3383 -15.3742 -0.2731 -3.3617 9.2875 3.0677 1.4116 11.0560 2.0052 2.3813 1.5568 0.0130 1.1572 -4.5320 -12.2339 -7.3129 -15.8215 8.7228 -9.5013 32.5832 4.0895 -4.2614 15.0723 0.0000 -0.0000 0.0000 -89.6380 4.4720 16.0577 13.6091 -22.1732 -2.6788 -0.0000 -0.0000 9.3011 21.7459 24.6806 9.4561 -7.1250 0.0000 -0.0000 -8.4507 56.1040 -2.3134 0.0000 -0.0000 0.0000 87.1772 -2.5375 13.6871 -13.1109 21.4495 -2.4937 0.0000 0.0000 10.1396 -15.1882 7.8192 -2.1152 7.1250 -0.0000 -0.0000 8.4549 -21.9123 4.7394
-12.0136 17.7524 -9.3765 -5.1402 52.2631 -2.9457 0.0000 0.0000 0.0000 -14.9243 -9.1870 -24.7478 1.6038 7.9868 22.6739 0.0811 -3.3804 -5.2413 0.2184 -3.0087 -8.3029 0.0000 0.0000 0.0000 29.0595 -3.1527 6.4063 -0.4213 -4.1660 11.5443 -0.6998 2.1730 -15.2136 -0.2476 -3.2020 8.8416 3.0223 1.4504 11.0490 1.9530 2.4258 1.4690 -0.0236 1.1769 -4.6188 -12.2817 -7.3370 -15.8109 8.7797 -9.5445 32.6453 4.1169 -4.2773 15.1130 -0.0000 0.0000 0.0000 -89.6397 4.5896 15.7354 13.3506 -21.7988 -2.5820 -0.0000 -0.0000 9.6158 22.2082 24.7303 9.6923 -7.1250 0.0000 -0.0000 -7.9828 56.2518 -2.2127 -0.0000 0.0000 0.0000 87.2319 -2.6349 13.6041 -13.1255 21.4709 -2.4990 0.0000 0.0000 10.1855 -15.3685 7.8509 -2.1501 7.1250 -0.0000 -0.0000 8.3232 -21.8721 4.6717
-11.9631 17.7522 -9.3370 -5.3339 52.2728 -2.9692 0.0000 0.0000 0.0000 -14.8117 -9.0953 -24.8036 1.4095 7.5091 21.2328 0.0793 -3.6866 -5.2677 0.1867 -2.7832 -7.6756 0.0000 0.0000 0.0000 29.1710 -3.2898 6.8728 -0.3701 -3.9075 10.8165 -0.6812 2.1172 -15.0137 -0.2213 -3.0281 8.3571 3.1652 1.4650 11.0044 1.9896 2.4629 1.4509 -0.0698 1.1932 -4.6079 -12.2628 -7.3318 -15.8630 8.7613 -9.5283 32.6010 4.1059 -4.2695 15.0990 -0.0000 0.0000 0.0000 -89.7156 4.6126 15.2809 13.1050 -21.4409 -2.4915 -0.0000 -0.0000 10.1434 22.2266 24.4338 9.5939 -7.1250 0.0000 -0.0000 -7.8392 55.9500 -2.1151 -0.0000 0.0000 0.0000 87.1832 -2.5895 13.7039 -13.1261 21.4717 -2.4993 0.0000 0.0000 10.2433 -15.2573 7.8603 -2.1363 7.1250 -0.0000 -0.0000 8.4034 -21.8673 4.7186
-11.9095 17.7516 -9.3002 -5.5271 52.2673 -2.9647 0.0000 0.0000 0.0000 -14.6961 -9.0332 -24.9301 1.2476 7.0819 19.9582 0.0797 -3.9542 -5.3554 0.1345 -2.3642 -6.5134 0.0000 0.0000 0.0000 29.2224 -3.5891 7.3008 -0.3148 -3.6069 9.9732 -0.6516 2.2078 -14.6549 -0.2316 -3.0977 8.5507 3.2970 1.4999 10.8706 2.0409 2.5217 1.4385 -0.0947 1.2214 -4.5420 -12.2548 -7.3438 -15.8067 8.7436 -9.5433 32.5129 4.0915 -4.2787 15.0451 -0.0000 0.0000 0.0000 -89.8255 4.6286 14.7518 12.8752 -21.1042 -2.4082 -0.0000 -0.0000 10.7961 22.0576 24.2689 9.4555 -7.1250 0.0000 -0.0000 -7.9492 55.7450 -2.1055 -0.0000 0.0000 0.0000 87.0692 -2.5653 13.9805 -13.1645 21.5278 -2.5133 0.0000 0.0000 10.0624 -15.1666 7.5926 -2.0512 7.1250 -0.0000 -0.0000 8.4784 -22.1450 4.7075
-11.8539 17.7532 -9.2639 -5.6391 52.2210 -2.8285 0.0000 0.0000 0.0000 -14.5795 -9.1098 -25.1086 1.1134 6.7036 18.8403 0.0842 -4.0633 -5.5041 0.0816 -1.8422 -5.0697 0.0000 0.0000 0.0000 29.2446 -3.6320 7.7584 -0.2622 -3.2944 9.0996 -0.6146 2.1077 -14.2377 -0.2541 -3.2436 8.9578 3.4438 1.5493 10.6861 2.0019 2.5939 1.3842 -0.2228 1.2542 -4.4862 -12.2139 -7.3676 -15.8031 8.8098 -9.6157 32.5317 4.1000 -4.2951 15.0653 -0.0000 -0.0000 0.0000 -89.8366 4.6332 14.1869 12.6544 -20.7788 -2.3293 -0.0000 -0.0000 11.3013 22.0257 24.5572 9.5439 -7.1250 0.0000 -0.0000 -8.1028 56.0354 -2.2037 -0.0000 -0.0000 0.0000 87.1018 -2.4918 14.0608 -13.0966 21.4285 -2.4885 0.0000 0.0000 10.1161 -15.5405 7.7218 -2.1398 7.1250 -0.0000 -0.0000 8.2027 -21.9971 4.5791
-11.7974 17.7519 -9.2237 -5.8147 52.1629 -2.7945 0.0000 0.0000 0.0000 -14.4119 -9.2181 -25.2128 0.9960 6.3515 17.8076 0.0889 -4.0494 -5.6188 0.0552 -1.5162 -4.1705 0.0000 0.0000 0.0000 29.3307 -3.6795 8.2225 -0.2206 -3.0234 8.3440 -0.5951 2.0393 -14.0165 -0.2173 -3.0013 8.2822 3.5985 1.5909 10.5893 1.9691 2.6617 1.3195 -0.3507 1.2837 -4.4897 -12.0963 -7.3615 -15.8661 8.7878 -9.6335 32.6435 4.0703 -4.2878 15.1250 -0.0000 -0.0000 0.0000 -89.8320 4.6771 13.6339 12.4471 -20.4717 -2.2562 -0.0000 -0.0000 11.6508 22.2013 24.8050 9.7159 -7.1250 0.0000 -0.0000 -8.0219 56.3273 -2.2383 -0.0000 -0.0000 0.0000 87.1798 -2.4494 13.9663 -13.0217 21.3190 -2.4612 0.0000 0.0000 10.4374 -15.7986 7.8659 -2.2175 7.1250 -0.0000 -0.0000 8.0111 -21.8379 4.4994
-11.7391 17.7479 -9.1831 -5.6919 52.2204 -2.5683 0.0000 0.0000 0.0000 -14.4698 -9.4237 -25.2637 0.9013 6.0504 16.9307 0.0926 -3.9769 -5.6911 0.0312 -1.1407 -3.1360 0.0000 0.0000 0.0000 29.2017 -3.8570 8.7298 -0.1810 -2.7404 7.5568 -0.5786 1.9823 -13.8255 -0.1750 -2.6951 7.4309 3.5206 1.5876 10.5409 1.9461 2.6463 1.2482 -0.3286 1.2752 -4.5401 -12.0778 -7.3532 -15.8762 8.7418 -9.6144 32.7860 4.0569 -4.2815 15.1875 0.0000 -0.0000 0.0000 -89.9186 4.8024 12.9929 12.2730 -20.2127 -2.1957 -0.0000 -0.0000 12.0768 22.0123 24.7704 9.6138 -7.1250 0.0000 -0.0000 -8.2076 56.2520 -2.2757 0.0000 -0.0000 0.0000 87.1633 -2.4736 13.9116 -13.0477 21.3570 -2.4706 0.0000 0.0000 10.5790 -15.3174 7.6429 -2.0862 7.1250 -0.0000 -0.0000 8.3673 -22.0874 4.6556
-11.6797 17.7467 -9.1480 -5.4422 52.2806 -2.2172 0.0000 0.0000 0.0000 -14.5859 -9.7455 -25.3667 0.8358 5.8321 16.2981 0.1054 -3.6406 -5.9301 0.0197 -0.9071 -2.4932 0.0000 0.0000 0.0000 28.9662 -4.0494 9.3013 -0.1382 -2.3959 6.6011 -0.5568 1.9320 -13.5644 -0.1645 -2.6130 7.2032 3.4083 1.5795 10.4792 1.9197 2.6187 1.2018 -0.2882 1.2622 -4.5588 -12.0701 -7.3245 -15.9046 8.6907 -9.5530 32.8149 4.0461 -4.2602 15.1947 0.0000 -0.0000 0.0000 -90.0195 4.9245 12.7466 12.1779 -20.0709 -2.1630 -0.0000 -0.0000 12.1269 21.6054 24.4841 9.3211 -7.1250 0.0000 -0.0000 -8.5148 55.8730 -2.2833 0.0000 -0.0000 0.0000 87.0607 -2.3573 14.0200 -12.9786 21.2559 -2.4455 0.0000 0.0000 10.5518 -15.0166 7.9838 -2.1338 7.1250 -0.0000 -0.0000 8.5734 -21.7513 4.8391
-11.6188 17.7432 -9.1093 -5.7023 52.2332 -2.2745 0.0000 0.0000 0.0000 -14.3116 -10.0605 -25.4671 0.7875 5.6652 15.8159 0.1218 -3.0973 -6.2454 0.0231 -0.9806 -2.6955 0.0000 0.0000 0.0000 29.0926 -4.1529 9.8794 -0.1037 -2.0763 5.7166 -0.5314 1.8676 -13.2533 -0.1632 -2.6025 7.1740 3.5344 1.5972 10.3487 2.0226 2.6560 1.2013 -0.2524 1.2810 -4.4851 -12.0765 -7.2857 -15.9862 8.5741 -9.4406 32.7794 4.0153 -4.2273 15.1729 -0.0000 0.0000 0.0000 -90.1891 5.0214 12.6645 12.1362 -20.0086 -2.1487 -0.0000 -0.0000 12.0439 21.3519 24.2789 9.1317 -7.1250 0.0000 -0.0000 -8.6939 55.6106 -2.2764 -0.0000 0.0000 0.0000 86.8464 -2.1752 14.2663 -12.8743 21.1028 -2.4079 0.0000 0.0000 10.4536 -15.1263 8.6972 -2.3407 7.1250 -0.0000 -0.0000 8.4718 -21.0169 4.9230
-11.5592 17.7370 -9.0676 -6.2326 52.1245 -2.6034 0.0000 0.0000 0.0000 -13.8884 -10.1393 -25.5588 0.7549 5.5491 15.4816 0.1293 -2.6806 -6.3944 0.0266 -1.0531 -2.8948 0.0000 0.0000 0.0000 29.4107 -4.2357 10.5166 -0.0746 -1.7616 4.8473 -0.4962 1.7067 -12.8256 -0.1638 -2.6076 7.1882 3.8059 1.6257 10.2862 2.1344 2.7286 1.1874 -0.2959 1.3139 -4.4560 -12.1470 -7.2671 -15.9289 8.6268 -9.4108 32.7061 4.0543 -4.2184 15.1292 0.0000 0.0000 0.0000 -90.2971 5.1591 12.4658 12.1119 -19.9723 -2.1404 -0.0000 -0.0000 11.9965 21.5359 24.4064 9.2615 -7.1250 0.0000 -0.0000 -8.5549 55.7789 -2.2746 0.0000 0.0000 0.0000 86.8088 -2.1002 14.2169 -12.8791 21.1098 -2.4096 0.0000 0.0000 10.5351 -14.9192 8.6302 -2.2895 7.1250 -0.0000 -0.0000 8.6226 -21.0951 4.9972
-11.4994 17.7320 -9.0278 -6.2488 52.0815 -2.5495 0.0000 0.0000 0.0000 -13.8454 -10.2266 -25.6191 0.7426 5.5048 15.3542 0.1344 -2.2094 -6.5108 0.0162 -0.8210 -2.2563 0.0000 0.0000 0.0000 29.3627 -4.4362 11.3381 -0.0416 -1.3171 3.6219 -0.4533 1.4761 -12.2913 -0.1310 -2.3332 6.4273 3.8356 1.6267 10.3108 2.0794 2.7321 1.1644 -0.3714 1.3134 -4.4895 -12.0997 -7.2305 -15.8635 8.7441 -9.4170 32.6467 4.0949 -4.2016 15.0911 0.0000 -0.0000 0.0000 -90.2671 5.1932 12.2057 12.0396 -19.8640 -2.1157 -0.0000 -0.0000 12.0069 21.8854 24.8415 9.5789 -7.1250 0.0000 -0.0000 -8.3725 56.2984 -2.3313 0.0000 -0.0000 0.0000 86.9521 -1.9844 14.0152 -12.8906 21.1268 -2.4137 0.0000 0.0000 10.7508 -14.4243 8.2444 -2.1123 7.1250 -0.0000 -0.0000 8.9918 -21.5109 5.1306
-11.4372 17.7265 -8.9866 -6.1690 52.1001 -2.3805 0.0000 0.0000 0.0000 -13.9553 -10.1285 -25.7820 0.7406 5.4976 15.3333 0.1285 -1.9231 -6.3756 0.0024 -0.3151 -0.8658 0.0000 0.0000 0.0000 29.2609 -4.7196 12.2337 -0.0149 -0.7874 2.1640 -0.4041 1.1878 -11.6529 -0.0735 -1.7492 4.8131 3.8192 1.6251 10.2839 2.0103 2.7230 1.1429 -0.4323 1.3079 -4.4946 -11.9685 -7.2265 -15.9110 8.7199 -9.4405 32.6670 4.0571 -4.1970 15.1039 0.0000 -0.0000 0.0000 -90.2506 5.0918 11.8536 11.8860 -19.6334 -2.0638 -0.0000 -0.0000 12.3424 21.9588 25.0004 9.6702 -7.1250 0.0000 -0.0000 -8.3636 56.4771 -2.3650 0.0000 -0.0000 0.0000 87.0476 -1.7798 13.8096 -12.8178 21.0196 -2.3875 0.0000 0.0000 11.0378 -14.1546 8.1303 -2.0427 7.1250 -0.0000 -0.0000 9.1907 -21.6385 5.2200
